<svg id="Capa_1" enable-background="new 0 0 512 512" height="512" viewBox="0 0 512 512" width="512" xmlns="http://www.w3.org/2000/svg"><g><path d="m484.501 442.712-174.232-174.232 78.837-78.837 114.993 234.361c.367.747.218 1.645-.371 2.233l-16.474 16.474c-.761.761-1.993.761-2.753.001z" fill="#3d4fc3"/><path d="m54.73 466.837-9.77-9.77c-2.536-2.536-2.536-6.648 0-9.185l104.941-104.941c2.536-2.536 6.648-2.536 9.185 0l9.77 9.77c2.536 2.536 2.536 6.648 0 9.185l-104.942 104.941c-2.536 2.537-6.648 2.537-9.184 0z" fill="#ffe07d"/><path d="m369.233 327.445-38.833-38.833 16.169-16.169c1.906-1.906 4.997-1.906 6.903 0l31.93 31.93c1.906 1.906 1.906 4.997 0 6.903z" fill="#407093"/><path d="m387.859 346.071 38.215 38.215 16.169-16.169c1.906-1.906 1.906-4.997 0-6.903l-31.311-31.311c-1.906-1.906-4.997-1.906-6.903 0z" fill="#407093"/><path d="m450.565 314.9 26.292-26.292c3.138-3.138 3.138-8.226 0-11.364l-15.599-15.599c-3.138-3.138-8.226-3.138-11.365 0l-17.079 17.079z" fill="#ffd064"/><path d="m376.663 334.875-7.276 7.276c-7.446 7.446-7.446 19.517 0 26.963s19.517 7.446 26.963 0l7.276-7.276z" fill="#ffd064"/><path d="m69.086 27.297 174.232 174.232 78.837-78.837-234.361-114.993c-.747-.367-1.645-.218-2.233.371l-16.475 16.475c-.76.76-.76 1.992 0 2.752z" fill="#5766cb"/><path d="m184.353 142.565 38.833 38.833 16.169-16.169c1.906-1.906 1.906-4.997 0-6.903l-31.93-31.93c-1.906-1.906-4.997-1.906-6.903 0z" fill="#3d4fc3"/><path d="m165.727 123.938-38.215-38.215 16.169-16.169c1.906-1.906 4.997-1.906 6.903 0l31.311 31.311c1.906 1.906 1.906 4.997 0 6.903z" fill="#3d4fc3"/><path d="m196.898 61.233 26.292-26.292c3.138-3.138 8.226-3.138 11.364 0l15.599 15.599c3.138 3.138 3.138 8.226 0 11.365l-17.079 17.079z" fill="#ffe07d"/><path d="m176.923 135.134-7.276 7.276c-7.446 7.446-19.517 7.446-26.963 0s-7.446-19.517 0-26.963l7.276-7.276z" fill="#ffe07d"/><path d="m120.558 338.3c.421-.677.845-1.353 1.271-2.028l-92.966-40.551c-1.519-.662-3.288-.328-4.459.844l-15.527 15.528c-1.573 1.573-1.573 4.124 0 5.697l76.715 76.715z" fill="#5766cb"/><path d="m175.702 389.857c-.733.463-1.468.924-2.204 1.382l-56.204 34.967 77.114 77.114c1.573 1.573 4.124 1.573 5.697 0l15.527-15.527c1.171-1.171 1.506-2.941.844-4.459z" fill="#3d4fc3"/><path d="m448.815 31.766c-30.728 7.397-58.816 23.139-81.165 45.488l-193.361 193.361c-20.436 20.436-38.464 43.146-53.731 67.686l-50.838 81.715c-1.015 1.632-1.705 3.388-2.08 5.188l82.261-82.261c2.536-2.536 6.648-2.536 9.185 0l9.77 9.77c2.536 2.536 2.536 6.648 0 9.185l-82.261 82.261c1.799-.375 3.556-1.065 5.188-2.08l81.715-50.838c24.54-15.267 47.249-33.295 67.685-53.731l193.361-193.361c22.349-22.349 38.09-50.437 45.488-81.165 4.526-18.802-12.417-35.744-31.217-31.218z" fill="#f1f4f6"/><path d="m78.955 405.173-9.234 14.843c-1.015 1.632-1.705 3.389-2.08 5.188l34.382-34.382z" fill="#dfeaef"/><path d="m448.815 31.766c-2.756.664-5.491 1.395-8.203 2.191.328 2.9.164 5.938-.58 9.025-7.397 30.728-23.139 58.816-45.488 81.165l-193.361 193.362c-11.298 11.298-23.292 21.86-35.904 31.626l3.577 3.577c2.536 2.536 2.536 6.648 0 9.185l-82.261 82.261c1.799-.375 3.556-1.065 5.188-2.08l81.715-50.838c24.54-15.267 47.25-33.295 67.686-53.731l193.361-193.361c22.349-22.349 38.09-50.437 45.488-81.165 4.525-18.801-12.418-35.743-31.218-31.217z" fill="#dfeaef"/><path d="m76.079 395.598-12.725 20.454c-1.032 1.658-1.847 3.422-2.436 5.266l-21.262 21.262c-5.455 5.456-5.456 14.334 0 19.791l9.77 9.77c5.456 5.456 14.335 5.457 19.792 0l21.261-21.261c1.844-.589 3.608-1.403 5.266-2.434l20.455-12.726 72.904 72.903c2.177 2.178 5.072 3.378 8.152 3.378s5.976-1.2 8.152-3.377l15.528-15.528c3.374-3.375 4.321-8.384 2.413-12.76l-38.222-87.626c22.083-14.474 42.691-31.229 61.358-49.897l63.754-63.754 55.817 55.817-1.972 1.972c-5.019 5.018-7.782 11.689-7.782 18.785s2.764 13.768 7.781 18.785c5.018 5.018 11.688 7.781 18.785 7.781 7.096 0 13.767-2.764 18.785-7.781l1.972-1.973 75.57 75.569c1.784 1.785 4.156 2.769 6.681 2.769s4.896-.983 6.68-2.767l16.472-16.472c2.857-2.855 3.583-7.21 1.804-10.843l-51.171-104.29 22.499-22.499c2.935-2.935 4.551-6.836 4.551-10.986s-1.616-8.051-4.55-10.985l-15.6-15.599c-2.935-2.934-6.836-4.55-10.985-4.55s-8.051 1.616-10.985 4.55l-9.662 9.662-8.308-16.931c-1.825-3.718-6.318-5.254-10.037-3.429-3.719 1.824-5.254 6.318-3.43 10.037 27.507 56.06 58.23 118.675 82.463 168.062l-9.739 9.739-49.196-49.196 10.866-10.866c2.338-2.338 3.626-5.448 3.626-8.755s-1.288-6.417-3.626-8.755l-31.312-31.311c-2.339-2.338-5.448-3.626-8.755-3.626-3.308 0-6.417 1.288-8.756 3.626l-10.865 10.866-8.019-8.019 10.866-10.866c2.338-2.338 3.626-5.448 3.626-8.755s-1.288-6.417-3.626-8.755l-31.93-31.93c-2.339-2.338-5.448-3.626-8.756-3.626-3.307 0-6.416 1.288-8.755 3.626l-10.866 10.865-9.553-9.553 66.127-66.127 10.328 21.049c1.825 3.719 6.318 5.253 10.037 3.43 3.719-1.825 5.254-6.318 3.43-10.037l-12.586-25.651 41.665-41.665c23.334-23.335 39.751-52.628 47.476-84.712 2.741-11.388-.566-23.132-8.85-31.415-8.282-8.283-20.024-11.591-31.415-8.849-32.084 7.724-61.377 24.141-84.713 47.476l-41.665 41.665-74.888-36.746 9.662-9.662c2.935-2.935 4.552-6.836 4.552-10.986s-1.616-8.051-4.551-10.986l-15.599-15.598c-2.935-2.935-6.836-4.551-10.985-4.551s-8.051 1.616-10.986 4.55l-22.5 22.5-104.291-51.172c-3.624-1.778-7.981-1.055-10.839 1.802l-16.472 16.472c-1.785 1.785-2.769 4.157-2.769 6.682s.983 4.898 2.767 6.679l75.571 75.571-1.972 1.972c-5.019 5.018-7.782 11.689-7.782 18.785s2.764 13.768 7.781 18.785c5.018 5.018 11.689 7.781 18.785 7.781s13.768-2.764 18.784-7.781l1.973-1.973 55.817 55.817-22.816 22.816c-2.929 2.929-2.929 7.678 0 10.606 2.93 2.929 7.678 2.929 10.607 0l152.423-152.422c21.381-21.38 48.22-36.422 77.617-43.5 6.265-1.509 12.736.311 17.297 4.873 4.561 4.561 6.382 11.027 4.872 17.297-7.077 29.397-22.118 56.236-43.499 77.617l-193.361 193.362c-19.999 19.999-42.31 37.712-66.344 52.666l-34.531 21.483 39.155-39.155c5.455-5.456 5.456-14.334 0-19.791l-9.77-9.77c-2.644-2.643-6.158-4.099-9.896-4.099s-7.253 1.456-9.896 4.099l-39.153 39.153 21.482-34.529c14.436-23.202 31.989-45.668 52.666-66.344l15.668-15.668c2.929-2.929 2.929-7.678 0-10.606-2.93-2.929-7.678-2.929-10.607 0l-15.668 15.668c-18.715 18.716-35.51 39.383-50.011 61.533l-25.688-11.205c-3.798-1.656-8.218.08-9.873 3.876-1.656 3.796.079 8.217 3.875 9.873l23.583 10.286-26.656 42.846-67.58-67.58 11.399-11.399 26.467 11.545c3.799 1.658 8.219-.079 9.873-3.876 1.656-3.796-.079-8.217-3.875-9.873l-28.637-12.491c-4.377-1.911-9.387-.962-12.762 2.415l-15.527 15.526c-4.494 4.495-4.494 11.809 0 16.304zm379.118-128.65c.039-.039.156-.156.378-.156.223 0 .341.118.379.157l15.6 15.599c.039.039.156.157.156.378s-.117.34-.157.379l-18.875 18.875-10.767-21.945zm-64.149 96.862c-2.186 2.185-5.09 3.388-8.179 3.388-3.09 0-5.994-1.203-8.179-3.388-2.185-2.184-3.388-5.088-3.388-8.178 0-3.089 1.203-5.994 3.389-8.178l1.972-1.972 16.356 16.356zm16.433-26.754 27.607 27.608-9.014 9.014-27.608-27.608zm-57.459-57.459 28.226 28.227-9.014 9.014-28.226-28.226zm-121.53-239.352c.039-.039.157-.157.38-.157.222 0 .339.118.378.157l15.599 15.599c.039.039.158.157.158.379s-.118.34-.157.379l-13.287 13.287-21.946-10.769zm-5.306 130.546-28.227-28.227 9.014-9.014 28.227 28.227zm-57.459-57.459c-3.519-3.519-20.587-20.587-27.608-27.608l9.014-9.015 27.608 27.608zm-1.384 23.775c-2.184 2.185-5.089 3.388-8.178 3.388s-5.994-1.203-8.179-3.388c-2.185-2.184-3.388-5.088-3.388-8.178 0-3.089 1.203-5.994 3.389-8.178l1.973-1.973c13.206 13.206 9.919 9.919 10.463 10.464.68.68-2.312-2.313 5.893 5.892zm69.45 44.291 10.866-10.866c2.338-2.338 3.626-5.448 3.626-8.755s-1.288-6.417-3.626-8.755l-31.93-31.93c-2.339-2.338-5.448-3.626-8.756-3.626-3.307 0-6.416 1.288-8.754 3.626l-10.866 10.866-8.02-8.02 10.867-10.866c4.826-4.827 4.826-12.682 0-17.51l-31.312-31.311c-2.339-2.338-5.448-3.626-8.755-3.626-3.308 0-6.417 1.288-8.756 3.626l-10.865 10.866-49.196-49.196 9.738-9.739c78.9 38.713 27.727 13.605 221.418 108.642l-66.126 66.127zm-36.537 314.164-67.979-67.979 43.023-26.767 36.355 83.346zm-42.763-146.606 8.348 8.348c-20.611 20.611-83.653 83.654-103.519 103.52l-8.348-8.348c122.841-122.842 92.169-92.17 103.519-103.52z"/><path d="m413.237 133.033c3.625 2.005 8.189.69 10.192-2.935 6.781-12.264 4.771-26.603-5.119-36.531-9.891-9.927-24.222-11.991-36.488-5.268l-.078.042c-3.639 1.979-4.984 6.533-3.006 10.171s6.529 4.984 10.172 3.006c.007-.004.093-.05.1-.054 7.626-4.181 14.647-1.354 18.675 2.688 4.026 4.041 6.828 11.072 2.618 18.686-2.004 3.627-.691 8.191 2.934 10.195z"/><circle cx="322.155" cy="157.89" r="7.5"/><circle cx="299.548" cy="180.496" r="7.5"/><circle cx="276.942" cy="203.103" r="7.5"/><circle cx="254.336" cy="225.709" r="7.5"/><circle cx="231.73" cy="248.315" r="7.5"/><circle cx="209.123" cy="270.922" r="7.5"/><circle cx="353.908" cy="189.643" r="7.5"/><circle cx="331.301" cy="212.249" r="7.5"/><circle cx="308.695" cy="234.856" r="7.5"/><circle cx="286.089" cy="257.462" r="7.5"/><circle cx="263.483" cy="280.068" r="7.5"/><circle cx="240.876" cy="302.674" r="7.5"/></g></svg>