<?xml version="1.0" encoding="iso-8859-1"?>
<!-- Generator: Adobe Illustrator 19.0.0, SVG Export Plug-In . SVG Version: 6.00 Build 0)  -->
<svg version="1.1" id="Capa_1" xmlns="http://www.w3.org/2000/svg" xmlns:xlink="http://www.w3.org/1999/xlink" x="0px" y="0px"
	 viewBox="0 0 512 512" style="enable-background:new 0 0 512 512;" xml:space="preserve">
<g>
	<path style="fill:#444D56;" d="M405.227,231.083c-54.758,0-99.148,44.39-99.148,99.147s44.39,99.148,99.148,99.148
		c54.757,0,99.147-44.39,99.147-99.148S459.985,231.083,405.227,231.083z M405.227,399.473c-38.241,0-69.242-31.001-69.242-69.242
		s31.001-69.242,69.242-69.242s69.242,31.001,69.242,69.242S443.469,399.473,405.227,399.473z"/>
	<path style="fill:#444D56;" d="M106.775,231.083c-54.758,0-99.148,44.39-99.148,99.147s44.39,99.148,99.148,99.148
		c54.757,0,99.147-44.39,99.147-99.148S161.532,231.083,106.775,231.083z M106.775,399.473c-38.241,0-69.242-31.001-69.242-69.242
		s31.001-69.242,69.242-69.242s69.242,31.001,69.242,69.242S145.015,399.473,106.775,399.473z"/>
</g>
<path style="fill:#34B2BD;" d="M234.391,106.01c0,8.42-6.823,15.253-15.253,15.253h-71.66c-2.654,0-3.844,1.627-4.373,3
	c-0.529,1.363-0.753,3.376,1.21,5.166l2.38,2.176c23.409,21.395,31.239,54.373,19.972,84.005l-45.638,120.043
	c-2.318,6.091-8.115,9.833-14.257,9.833c-1.81,0-3.64-0.315-5.42-0.997c-7.881-2.99-11.837-11.806-8.837-19.677l45.638-120.053
	c6.793-17.856,2.064-37.736-12.04-50.631l-2.39-2.186c-10.799-9.874-14.358-25.076-9.06-38.723s18.182-22.463,32.815-22.463h71.66
	C227.568,90.757,234.391,97.59,234.391,106.01z"/>
<path style="fill:#444D56;" d="M234.391,106.01c0,8.42-6.823,15.253-15.253,15.253h-41.692V90.757h41.692
	C227.568,90.757,234.391,97.59,234.391,106.01z"/>
<path style="fill:#34B2BD;" d="M416.2,319.636L308.888,208.562l22.453-54.759l-10.515-14.236l-22.453,14.236l-17.551,42.801
	l-109.406-1.424l-17.358,12.518l8.827,17.877l105.501,1.383l-31.645,77.181l-76.805-70.826l-24.155,12.354l12.471,18.376
	l83.933,77.405l0.01-0.01c2.786,2.583,6.457,4.047,10.332,4.047h162.701c6.122,0,11.653-3.661,14.043-9.294
	C421.66,330.558,420.45,324.04,416.2,319.636z M265.265,314.978l30.991-75.591l73.027,75.591H265.265z"/>
<path style="fill:#444D56;" d="M350.394,120.99l-53.101,5.772c-13.804,1.501-24.262,13.156-24.262,27.042l0,0h93.552v-18.289
	C366.584,126.82,359.038,120.05,350.394,120.99z"/>
<path d="M405.227,223.46c-19.975,0-39.197,5.481-56.005,15.876l-31.388-32.489l18.622-45.416h30.127
	c4.213,0,7.627-3.415,7.627-7.627v-18.289c0-6.307-2.692-12.34-7.388-16.552c-4.695-4.212-10.979-6.238-17.253-5.555l-53.101,5.773
	c-17.71,1.925-31.065,16.81-31.065,34.624c0,4.212,3.414,7.627,7.627,7.627h13.971l-11.269,27.479l-96.366-1.254
	c-0.116-21.69-8.632-42.791-24.491-58.767h14.943v4.576c0,4.212,3.414,7.627,7.627,7.627s7.627-3.415,7.627-7.627v-4.576h34.066
	c12.615,0,22.88-10.264,22.88-22.88s-10.264-22.88-22.88-22.88h-34.066v-0.508c0-4.212-3.414-7.627-7.627-7.627
	s-7.627,3.415-7.627,7.627v0.508h-22.341c-17.809,0-33.48,10.727-39.925,27.329c-6.446,16.604-2.119,35.096,11.022,47.11
	l2.392,2.188c11.785,10.774,15.733,27.372,10.057,42.291l-8.577,22.563c-5.163-0.76-10.411-1.151-15.674-1.151
	C47.898,223.46,0,271.358,0,330.232s47.898,106.773,106.773,106.773c57.429,0,104.405-45.578,106.678-102.459l13.563,12.509
	c0.214,0.197,0.438,0.375,0.667,0.543c2.15,1.845,4.592,3.255,7.219,4.185v13.023h-10.677c-4.213,0-7.627,3.415-7.627,7.627
	c0,4.212,3.414,7.627,7.627,7.627h35.591c4.213,0,7.627-3.415,7.627-7.627c0-4.212-3.414-7.627-7.627-7.627h-9.66v-11.694h50.781
	c4.904,22.396,16.972,42.771,34.474,57.907c19.376,16.757,44.171,25.985,69.819,25.985c58.874,0,106.773-47.898,106.773-106.773
	S464.102,223.46,405.227,223.46z M298.118,134.344l53.101-5.773c1.988-0.217,3.921,0.402,5.419,1.745
	c1.496,1.342,2.32,3.188,2.32,5.198v10.662h-76.761C284.883,139.811,290.848,135.134,298.118,134.344z M280.723,204.23
	c0.034,0,0.066,0,0.101,0c3.09,0,5.88-1.867,7.055-4.733l15.61-38.067h16.482l-18.139,44.238c-1.148,2.8-0.531,6.016,1.572,8.192
	l107.309,111.072c2.378,2.464,2.854,6.225,1.047,9.243c-1.407,2.35-4.046,3.682-6.786,3.682H242.526
	c-1.919,0-3.746-0.715-5.147-2.013l-5.189,5.599l0,0l5.166-5.601l-80.141-73.908l5.843-15.368l68.513,63.18
	c1.423,1.313,3.274,2.02,5.17,2.02c0.984,0,1.982-0.191,2.935-0.587c1.952-0.81,3.433-2.466,4.235-4.421l31.532-76.907
	c1.255-3.063,0.417-6.681-2.322-8.879c-1.362-1.093-3.095-1.62-4.841-1.643l-27.921-0.366c-4.212-0.055-7.67,3.314-7.726,7.526l0,0
	c-0.055,4.212,3.314,7.671,7.526,7.726l16.918,0.222l-23.232,56.659l-62.662-57.784l29.31,0.384c4.212,0.055,7.67-3.314,7.726-7.526
	l0,0c0.055-4.212-3.314-7.671-7.526-7.726l-26.815-0.351c1.885-5.001,3.272-10.086,4.183-15.198L280.723,204.23z M421.685,314.337
	l-39.751-41.144c7.354-3.004,15.26-4.574,23.294-4.574c33.973,0,61.613,27.64,61.613,61.613s-27.64,61.613-61.613,61.613
	c-14.28,0-27.678-4.741-38.748-13.708c-8.209-6.65-14.563-15.326-18.457-25.025h57.206c9.204,0,17.472-5.473,21.064-13.942
	C429.883,330.704,428.076,320.958,421.685,314.337z M85.898,339.607c2.505,5.578,7.033,9.844,12.728,12.005
	c2.602,0.996,5.343,1.501,8.147,1.501c9.434,0,18.028-5.926,21.385-14.75l20.329-53.475c12.599,11.568,19.897,27.921,19.897,45.344
	c0,33.973-27.64,61.613-61.613,61.613s-61.613-27.64-61.613-61.613c0-33.616,27.065-61.013,60.547-61.585l-20.318,53.45
	C83.211,327.81,83.392,334.028,85.898,339.607z M219.138,98.383c4.206,0,7.627,3.422,7.627,7.627c0,4.205-3.421,7.627-7.627,7.627
	h-34.066V98.383H219.138z M145.281,207.471c7.913-20.802,2.41-43.95-14.02-58.969l-2.392-2.188
	c-8.461-7.736-11.248-19.643-7.097-30.335c4.15-10.689,14.24-17.596,25.706-17.596h22.341v15.253h-22.341
	c-5.291,0-9.587,2.947-11.485,7.87c-1.911,4.929-0.721,9.997,3.175,13.55l2.382,2.178c21.079,19.266,28.139,48.966,17.987,75.665
	L113.901,332.94c-1.12,2.943-3.984,4.919-7.128,4.919c-0.933,0-1.841-0.166-2.715-0.5c-1.904-0.722-3.411-2.143-4.245-4
	s-0.895-3.928-0.168-5.836L145.281,207.471z M198.292,330.232c0,50.464-41.056,91.519-91.519,91.519s-91.519-41.056-91.519-91.519
	s41.056-91.519,91.519-91.519c3.385,0,6.76,0.19,10.103,0.556l-5.417,14.25c-1.563-0.095-3.127-0.152-4.686-0.152
	c-42.385,0-76.866,34.482-76.866,76.866s34.481,76.866,76.866,76.866s76.866-34.482,76.866-76.866
	c0-9.759-1.838-19.249-5.283-28.051l19.363,17.856C198.095,323.383,198.292,326.798,198.292,330.232z M405.227,421.752
	c-21.985,0-43.238-7.908-59.841-22.269c-14.153-12.24-24.164-28.469-28.784-46.371h15.235c4.494,14.384,13.234,27.313,25.04,36.877
	c13.62,11.033,30.79,17.109,48.351,17.109c42.385,0,76.866-34.482,76.866-76.866s-34.481-76.866-76.866-76.866
	c-12.043,0-23.859,2.825-34.529,8.197l-10.587-10.958c13.699-7.794,29.124-11.893,45.116-11.893
	c50.464,0,91.519,41.056,91.519,91.519S455.691,421.752,405.227,421.752z"/>
<path d="M258.932,319.227c1.417,2.111,3.792,3.378,6.334,3.378h104.018c3.061,0,5.826-1.829,7.021-4.647
	c1.196-2.818,0.591-6.077-1.536-8.278l-73.027-75.591c-1.79-1.853-4.391-2.676-6.922-2.191c-2.529,0.485-4.642,2.214-5.619,4.597
	l-30.99,75.591C257.245,314.437,257.515,317.116,258.932,319.227z M316.597,307.352c2.271-8.783,5.854-17.212,10.609-24.951
	l10.58,10.951c-2.447,4.462-4.434,9.142-5.944,14L316.597,307.352L316.597,307.352z M348.017,307.352
	c0.318-0.797,0.654-1.586,1.006-2.369l2.289,2.369H348.017z M298.883,253.083l17.427,18.038
	c-7.329,11.003-12.57,23.333-15.399,36.229h-24.277L298.883,253.083z"/>
<g>
</g>
<g>
</g>
<g>
</g>
<g>
</g>
<g>
</g>
<g>
</g>
<g>
</g>
<g>
</g>
<g>
</g>
<g>
</g>
<g>
</g>
<g>
</g>
<g>
</g>
<g>
</g>
<g>
</g>
</svg>
