<?xml version="1.0" encoding="iso-8859-1"?>
<!-- Generator: Adobe Illustrator 19.0.0, SVG Export Plug-In . SVG Version: 6.00 Build 0)  -->
<svg version="1.1" id="Capa_1" xmlns="http://www.w3.org/2000/svg" xmlns:xlink="http://www.w3.org/1999/xlink" x="0px" y="0px"
	 viewBox="0 0 512 512" style="enable-background:new 0 0 512 512;" xml:space="preserve">
<g>
	<path style="fill:#5DADE0;" d="M466.555,259.838c0.459,1.168,0.898,2.343,1.314,3.524
		C467.452,262.181,467.013,261.006,466.555,259.838z"/>
	<path style="fill:#5DADE0;" d="M470.252,271.085c0.965,3.605,1.738,7.257,2.315,10.941
		C471.99,278.342,471.218,274.691,470.252,271.085z"/>
	<path style="fill:#5DADE0;" d="M352.609,185.023c1.403,0,2.803,0.031,4.2,0.078C355.412,185.054,354.013,185.023,352.609,185.023z"
		/>
	<path style="fill:#5DADE0;" d="M465.176,256.509c0.405,0.935,0.796,1.875,1.173,2.821
		C465.971,258.385,465.581,257.445,465.176,256.509z"/>
	<path style="fill:#5DADE0;" d="M469.222,267.503c0.298,0.975,0.583,1.954,0.853,2.937
		C469.805,269.457,469.521,268.478,469.222,267.503z"/>
	<path style="fill:#5DADE0;" d="M467.899,263.455c0.391,1.115,0.76,2.236,1.113,3.361
		C468.659,265.691,468.291,264.569,467.899,263.455z"/>
	<path style="fill:#5DADE0;" d="M472.643,282.526c0.167,1.104,0.318,2.211,0.45,3.32
		C472.961,284.737,472.811,283.631,472.643,282.526z"/>
	<path style="fill:#5DADE0;" d="M376.353,187.313c0.951,0.184,1.899,0.376,2.844,0.582
		C378.251,187.689,377.303,187.497,376.353,187.313z"/>
	<path style="fill:#5DADE0;" d="M370.959,186.378c1.374,0.204,2.741,0.436,4.103,0.685
		C373.699,186.815,372.332,186.582,370.959,186.378z"/>
	<path style="fill:#5DADE0;" d="M380.63,188.216c0.942,0.217,1.881,0.446,2.817,0.685
		C382.511,188.662,381.573,188.432,380.63,188.216z"/>
	<path style="fill:#5DADE0;" d="M358.145,185.16c0.979,0.043,1.957,0.096,2.932,0.162
		C360.102,185.256,359.125,185.203,358.145,185.16z"/>
	<path style="fill:#5DADE0;" d="M366.792,185.838c1.383,0.158,2.762,0.332,4.134,0.536
		C369.553,186.17,368.174,185.995,366.792,185.838z"/>
	<path style="fill:#5DADE0;" d="M362.559,185.432c0.974,0.078,1.946,0.169,2.916,0.269
		C364.505,185.601,363.533,185.51,362.559,185.432z"/>
	<path style="fill:#5DADE0;" d="M463.632,253.117c0.392,0.823,0.773,1.651,1.143,2.483
		C464.405,254.768,464.024,253.941,463.632,253.117z"/>
	<path style="fill:#5DADE0;" d="M421.87,205.953c-1.312-0.872-2.639-1.718-3.981-2.539c1.177,0.72,2.346,1.453,3.499,2.212
		C421.55,205.732,421.709,205.845,421.87,205.953z"/>
	<path style="fill:#5DADE0;" d="M414.279,201.294c0.84,0.476,1.674,0.963,2.504,1.459
		C415.953,202.257,415.119,201.77,414.279,201.294z"/>
	<path style="fill:#5DADE0;" d="M377.26,286.442c-26.116-2.007-47.057-22.41-49.742-48.466l-5.456-52.953h-26.85h-57.93
		L55.021,161.529l13.169,24.674c2.555,4.787,3.891,10.129,3.891,15.555v8.168l130.481,26.302
		c14.677,2.958,27.116,12.628,33.604,26.121l24.248,50.429c7.831,16.286,24.303,26.643,42.374,26.643h153.486
		c5.769,0,10.875-3.734,12.624-9.232l0,0c4.576-14.387,5.93-29.363,4.244-43.953c0.292,2.529,0.495,5.07,0.603,7.617L377.26,286.442
		z"/>
	<path style="fill:#5DADE0;" d="M453.133,235.628c0.725,0.978,1.427,1.968,2.115,2.966
		C454.56,237.596,453.858,236.605,453.133,235.628L453.133,235.628C453.132,235.627,453.133,235.628,453.133,235.628z"/>
	<path style="fill:#5DADE0;" d="M433.044,214.302c1.233,1.034,2.441,2.103,3.636,3.187
		C435.484,216.405,434.277,215.337,433.044,214.302z"/>
	<path style="fill:#5DADE0;" d="M441.953,222.56c-1.425-1.453-2.882-2.868-4.371-4.245c1.191,1.101,2.37,2.218,3.52,3.368
		C441.389,221.971,441.668,222.269,441.953,222.56z"/>
	<path style="fill:#5DADE0;" d="M405.615,196.811c1.246,0.583,2.479,1.191,3.705,1.815
		C408.094,198.002,406.861,197.394,405.615,196.811z"/>
	<path style="fill:#5DADE0;" d="M384.713,189.222c1.336,0.355,2.667,0.726,3.989,1.124
		C387.38,189.948,386.049,189.577,384.713,189.222z"/>
	<path style="fill:#5DADE0;" d="M461.679,249.206c0.529,1.002,1.039,2.013,1.534,3.029
		C462.717,251.219,462.208,250.208,461.679,249.206z"/>
	<path style="fill:#5DADE0;" d="M459.807,245.815c0.608,1.055,1.2,2.118,1.769,3.191
		C461.007,247.933,460.415,246.87,459.807,245.815z"/>
	<path style="fill:#5DADE0;" d="M455.87,239.517c0.481,0.713,0.953,1.43,1.415,2.153C456.823,240.948,456.35,240.23,455.87,239.517z
		"/>
	<path style="fill:#5DADE0;" d="M457.933,242.695c0.471,0.756,0.93,1.517,1.38,2.283
		C458.862,244.213,458.404,243.451,457.933,242.695z"/>
	<path style="fill:#5DADE0;" d="M410.466,199.223c0.855,0.446,1.706,0.9,2.551,1.366
		C412.172,200.123,411.321,199.669,410.466,199.223z"/>
	<path style="fill:#5DADE0;" d="M397.955,193.546c0.899,0.35,1.793,0.712,2.684,1.082
		C399.748,194.258,398.854,193.896,397.955,193.546z"/>
	<path style="fill:#5DADE0;" d="M401.831,195.124c1.265,0.542,2.524,1.098,3.77,1.681
		C404.355,196.222,403.097,195.666,401.831,195.124z"/>
	<path style="fill:#5DADE0;" d="M388.711,190.349c1.322,0.399,2.635,0.825,3.942,1.267
		C391.346,191.174,390.033,190.748,388.711,190.349z"/>
	<path style="fill:#5DADE0;" d="M393.877,192.043c0.911,0.318,1.819,0.645,2.721,0.984
		C395.695,192.688,394.788,192.362,393.877,192.043z"/>
</g>
<path style="fill:#ECEFF0;" d="M453.132,235.627c-0.738-0.995-1.49-1.977-2.254-2.946c-1.529-1.938-3.11-3.825-4.74-5.658
	c-0.815-0.917-1.643-1.82-2.482-2.71c-0.56-0.593-1.132-1.171-1.703-1.753c-0.285-0.291-0.564-0.589-0.851-0.876
	c-1.15-1.15-2.329-2.267-3.52-3.368c-0.299-0.277-0.6-0.552-0.902-0.826c-1.195-1.084-2.402-2.152-3.636-3.187
	c-0.005-0.004-0.009-0.008-0.014-0.012c-0.93-0.78-1.87-1.545-2.82-2.296c-0.951-0.751-1.911-1.488-2.882-2.21
	c-0.971-0.722-1.951-1.43-2.941-2.123c-0.831-0.582-1.673-1.147-2.517-1.708c-0.162-0.107-0.32-0.22-0.482-0.327
	c-1.154-0.759-2.322-1.492-3.499-2.212c-0.367-0.224-0.737-0.44-1.106-0.661c-0.829-0.495-1.663-0.983-2.504-1.459
	c-0.419-0.238-0.84-0.472-1.262-0.705c-0.845-0.466-1.696-0.92-2.551-1.366c-0.382-0.199-0.762-0.402-1.146-0.598
	c-1.226-0.623-2.459-1.232-3.705-1.815c-0.004-0.002-0.009-0.004-0.013-0.006c-1.246-0.583-2.505-1.139-3.77-1.681
	c-0.396-0.169-0.795-0.331-1.193-0.496c-0.89-0.37-1.784-0.732-2.684-1.082c-0.451-0.176-0.904-0.348-1.357-0.519
	c-0.903-0.339-1.81-0.666-2.721-0.984c-0.408-0.143-0.814-0.289-1.224-0.428c-1.307-0.442-2.619-0.868-3.942-1.267
	c-0.003-0.001-0.006-0.002-0.009-0.003c-1.322-0.398-2.653-0.769-3.989-1.124c-0.421-0.112-0.844-0.215-1.266-0.322
	c-0.936-0.238-1.875-0.468-2.817-0.685c-0.477-0.11-0.955-0.217-1.434-0.321c-0.945-0.206-1.893-0.398-2.844-0.582
	c-0.43-0.083-0.859-0.171-1.291-0.25c-1.363-0.249-2.73-0.481-4.103-0.685c-0.011-0.002-0.022-0.003-0.033-0.005
	c-1.373-0.203-2.752-0.378-4.134-0.536c-0.438-0.05-0.878-0.091-1.317-0.136c-0.97-0.1-1.942-0.192-2.916-0.269
	c-0.493-0.04-0.987-0.076-1.481-0.11c-0.975-0.066-1.953-0.119-2.932-0.162c-0.445-0.02-0.89-0.044-1.336-0.059
	c-1.397-0.047-2.796-0.077-4.2-0.078c-0.011,0-0.022-0.001-0.033-0.001H329.19l0,0h-7.127l5.456,52.953
	c2.684,26.055,23.625,46.459,49.742,48.466l96.484,7.413c-0.108-2.547-0.311-5.088-0.603-7.617c-0.015-0.13-0.032-0.26-0.048-0.391
	c-0.132-1.109-0.283-2.216-0.45-3.32c-0.025-0.167-0.05-0.333-0.076-0.5c-0.577-3.684-1.35-7.336-2.315-10.941
	c-0.058-0.216-0.118-0.43-0.177-0.646c-0.27-0.983-0.554-1.962-0.853-2.937c-0.07-0.229-0.138-0.458-0.21-0.686
	c-0.353-1.125-0.722-2.247-1.113-3.361c-0.011-0.031-0.02-0.062-0.031-0.092c-0.416-1.182-0.855-2.356-1.314-3.524
	c-0.067-0.17-0.139-0.339-0.206-0.508c-0.377-0.945-0.768-1.885-1.173-2.821c-0.132-0.304-0.266-0.607-0.401-0.91
	c-0.369-0.832-0.751-1.659-1.143-2.483c-0.14-0.294-0.277-0.589-0.42-0.882c-0.495-1.017-1.005-2.027-1.534-3.029
	c-0.035-0.066-0.068-0.134-0.103-0.2c-0.569-1.073-1.161-2.135-1.769-3.191c-0.161-0.281-0.33-0.557-0.494-0.837
	c-0.45-0.766-0.909-1.527-1.38-2.283c-0.214-0.343-0.43-0.684-0.648-1.025c-0.462-0.723-0.935-1.44-1.415-2.153
	c-0.207-0.308-0.412-0.617-0.623-0.923c-0.688-0.998-1.389-1.988-2.115-2.966C453.133,235.628,453.132,235.627,453.132,235.627
	L453.132,235.627L453.132,235.627L453.132,235.627z"/>
<g>
	<path style="fill:#FFC766;" d="M329.189,185.023L329.189,185.023v-39.13c0-9.382-7.606-16.988-16.988-16.988l0,0
		c-9.382,0-16.988,7.606-16.988,16.988v39.13h26.85H329.189z"/>
	<path style="fill:#FFC766;" d="M68.19,186.203l-13.169-24.674l-16.519-30.95c-1.699-3.183-4.782-5.393-8.342-5.98l-17.319-2.854
		c-1.539-0.253-2.918,0.98-2.837,2.537l4.579,88.532c0.182,3.515,2.75,6.447,6.21,7.091l39.049,7.265
		c6.363,1.184,12.239-3.699,12.239-10.172v-7.072v-8.168C72.081,196.332,70.744,190.99,68.19,186.203z"/>
</g>
<path d="M506.088,351.895c-5.039-2.262-10.957-0.006-13.215,5.035c-6.361,14.189-20.518,23.357-36.067,23.357h-20.499v-30.865
	h19.965c10.169,0,19.072-6.511,22.154-16.202c4.061-12.768,5.787-26,5.301-39.095c0.006-0.231,0.018-0.462,0.008-0.695
	c-0.822-19.368-6.444-37.968-16.338-54.417c-0.264-0.438-0.526-0.877-0.796-1.312c-0.354-0.571-0.711-1.139-1.076-1.704
	c-0.409-0.635-0.826-1.267-1.248-1.895c-0.282-0.42-0.56-0.841-0.848-1.258c-0.739-1.069-1.49-2.13-2.267-3.177
	c-3.156-4.254-6.599-8.365-10.233-12.218c-0.906-0.96-1.825-1.906-2.757-2.838c-2.778-2.777-5.711-5.464-8.716-7.983
	c-1.005-0.843-2.021-1.67-3.046-2.479c-2.041-1.613-4.157-3.188-6.291-4.682c-1.068-0.748-2.147-1.48-3.236-2.196
	c-18.574-12.216-39.662-19.577-61.616-21.634c-0.467-0.044-0.934-0.089-1.401-0.127c-0.849-0.071-1.698-0.136-2.55-0.19
	c-0.796-0.051-1.594-0.093-2.392-0.13c-0.634-0.03-1.266-0.064-1.901-0.085c-1.43-0.047-2.861-0.076-4.296-0.078
	c-0.051,0-0.102-0.003-0.152-0.003h-13.387v-13.97h75.883c5.523,0,10-4.477,10-10s-4.477-10-10-10h-76.326
	c-2.289-12.578-13.317-22.147-26.545-22.147c-13.228,0-24.256,9.569-26.545,22.147h-76.326c-5.523,0-10,4.477-10,10s4.477,10,10,10
	h75.883v13.971h-47.288L61.414,152.271l-14.091-26.4c-3.143-5.888-8.951-10.052-15.538-11.138l-17.32-2.854
	c-3.731-0.613-7.495,0.479-10.316,3.002c-2.822,2.523-4.328,6.138-4.132,9.918l4.579,88.533c0.423,8.163,6.331,14.909,14.368,16.405
	l39.049,7.265l0,0c1.247,0.232,2.5,0.346,3.744,0.346c4.707,0,9.293-1.634,12.983-4.701c3.348-2.782,5.665-6.508,6.71-10.63
	l119.137,24.016c11.536,2.326,21.468,10.046,26.568,20.652l24.249,50.429c7.971,16.578,23.599,28.201,41.386,31.412v31.763h-75.458
	c-5.523,0-10,4.477-10,10s4.477,10,10,10h85.458h123.518h30.498c23.417,0,44.738-13.808,54.317-35.177
	C513.382,360.071,511.128,354.154,506.088,351.895z M356.363,195.091c0.544,0.018,1.086,0.047,1.628,0.073
	c0.678,0.032,1.355,0.067,2.031,0.111c0.727,0.048,1.452,0.101,2.177,0.163c0.397,0.033,0.793,0.071,1.189,0.108
	c1.549,0.148,3.092,0.33,4.629,0.54c0.098,0.013,0.195,0.028,0.293,0.041c23.654,3.295,45.825,13.918,63.204,30.22
	c0.198,0.187,0.392,0.376,0.589,0.564c3.335,3.173,6.485,6.562,9.436,10.145c0.148,0.18,0.296,0.361,0.443,0.542
	c0.924,1.136,1.834,2.288,2.716,3.464c0.132,0.176,0.271,0.349,0.403,0.526c0.05,0.068,0.097,0.137,0.147,0.205
	c9.068,12.291,14.913,26.45,17.318,41.175l-84.541-6.495c-21.312-1.638-38.37-18.258-40.56-39.52l-4.32-41.928h19.43
	c0.051,0,0.102,0.002,0.153,0.002C353.942,195.027,355.154,195.052,356.363,195.091z M305.213,161.052v-15.159
	c0-1.879,0.749-3.584,1.96-4.841c1.272-1.321,3.054-2.147,5.029-2.147c1.975,0,3.757,0.826,5.029,2.147
	c1.211,1.257,1.96,2.962,1.96,4.841v15.159v13.971h-13.977L305.213,161.052L305.213,161.052z M62.081,216.998
	c0,0.069,0,0.163-0.125,0.267c-0.125,0.104-0.217,0.087-0.284,0.074l0,0l-37.199-6.92l-3.276-63.332l-0.721-13.948l8.058,1.328
	c0.486,0.08,0.915,0.388,1.146,0.822l7.39,13.845l11.558,21.655l10.74,20.123c1.123,2.105,1.909,4.381,2.336,6.723
	c0.248,1.359,0.377,2.74,0.377,4.125C62.081,201.76,62.081,216.998,62.081,216.998z M272.098,313.088h23.115c5.523,0,10-4.477,10-10
	s-4.477-10-10-10h-33.172l-9.33-19.403h20.454c5.523,0,10-4.477,10-10s-4.477-10-10-10h-30.335
	c-8.279-13.973-22.263-24.028-38.293-27.259L82.08,201.741c-0.003-7.037-1.755-14.038-5.068-20.247l-4.039-7.568l163.034,21.015
	c0.424,0.055,0.851,0.082,1.278,0.082h57.929h17.827l4.531,43.978c3.182,30.887,27.962,55.032,58.922,57.412l87.204,6.7
	c-0.401,8.092-1.827,16.176-4.33,24.047c-0.43,1.354-1.674,2.263-3.094,2.263h-29.966h-123.52
	C290.45,329.422,278.91,323.151,272.098,313.088z M312.787,349.422h103.52v30.865h-103.52V349.422z"/>
<path d="M329.658,311.4c0.55,0.36,1.13,0.67,1.73,0.92c0.6,0.25,1.23,0.44,1.87,0.57c0.65,0.13,1.3,0.2,1.95,0.2
	c0.66,0,1.31-0.07,1.96-0.2c0.64-0.13,1.27-0.32,1.87-0.57s1.18-0.56,1.72-0.92c0.55-0.36,1.06-0.78,1.52-1.24
	c1.87-1.86,2.94-4.44,2.94-7.07c0-0.65-0.07-1.31-0.2-1.96c-0.13-0.63-0.32-1.26-0.57-1.87c-0.25-0.6-0.56-1.18-0.92-1.72
	c-0.37-0.55-0.78-1.06-1.25-1.52c-0.46-0.46-0.97-0.88-1.52-1.25c-0.54-0.36-1.12-0.67-1.72-0.92s-1.23-0.44-1.87-0.57
	c-1.29-0.26-2.62-0.26-3.91,0c-0.64,0.13-1.27,0.32-1.87,0.57c-0.6,0.25-1.18,0.56-1.73,0.92c-0.54,0.37-1.06,0.79-1.52,1.25
	s-0.88,0.97-1.24,1.52c-0.36,0.54-0.67,1.12-0.92,1.72c-0.25,0.61-0.44,1.24-0.57,1.87c-0.13,0.65-0.2,1.31-0.2,1.96
	c0,2.63,1.07,5.21,2.93,7.07C328.598,310.619,329.118,311.04,329.658,311.4z"/>
<g>
</g>
<g>
</g>
<g>
</g>
<g>
</g>
<g>
</g>
<g>
</g>
<g>
</g>
<g>
</g>
<g>
</g>
<g>
</g>
<g>
</g>
<g>
</g>
<g>
</g>
<g>
</g>
<g>
</g>
</svg>
