<svg height="512" viewBox="0 0 128 128" width="512" xmlns="http://www.w3.org/2000/svg"><g><g><path d="m98.5 102.2c-4.88 10.72-10.52 19.3-19.9 19.3s-9.1-5-14.6-5-5.22 5-14.6 5-15.02-8.58-19.9-19.3c-16.75-36.18-9.2-59.45.47-66.84 10.85-8.29 23.86 1.64 34.03 1.64s23.18-9.93 34.03-1.64c9.67 7.39 17.22 30.66.47 66.84z" fill="#9adb07"/><path d="m49.665 8.49c-3.214 12.5 16.929 12.7 16.929 12.7-2.288-14.723-16.929-12.7-16.929-12.7z" fill="#8ec100"/></g><g fill="#220401"><path d="m99.093 33.969c-7.868-6.011-16.663-3.342-24.423-.986a55.05 55.05 0 0 1 -8.439 2.1 98.35 98.35 0 0 1 2.034-13.383c.011-.035.016-.071.025-.107 1.456-6.2 3.648-11.483 6.855-13.636a1.75 1.75 0 0 0 -1.95-2.906c-2.939 1.973-5.086 5.686-6.66 10.089-4.963-9.906-16.971-8.4-17.109-8.38a1.751 1.751 0 0 0 -1.456 1.3 9.565 9.565 0 0 0 1.471 8.6c3.537 4.607 11.232 5.835 14.993 6.163a105.506 105.506 0 0 0 -1.726 12.374 47.615 47.615 0 0 1 -9.379-2.209c-1.954-.593-3.975-1.207-6.014-1.694a1.75 1.75 0 0 0 -.813 3.4c1.936.462 3.9 1.06 5.81 1.639a49.81 49.81 0 0 0 10.149 2.351c-.093 1.6-.146 2.995-.176 4.106a9.278 9.278 0 0 1 -3.036-.919 1.75 1.75 0 0 0 -1.749 3.029 13.924 13.924 0 0 0 6.468 1.516h.014.025a13.914 13.914 0 0 0 6.493-1.516 1.75 1.75 0 1 0 -1.748-3.032 9.457 9.457 0 0 1 -2.965.905c.035-1.3.094-2.689.181-4.138a52.449 52.449 0 0 0 9.72-2.3c7.3-2.214 14.838-4.5 21.281.418 6.415 4.9 14.827 20.968 5.663 50.076a1.751 1.751 0 0 0 1.144 2.2 1.779 1.779 0 0 0 .526.081 1.752 1.752 0 0 0 1.669-1.226c8.529-27.097 2.69-46.602-6.878-53.915zm-46.878-19.448a5.727 5.727 0 0 1 -1.09-4.38c3.056-.082 10.848.612 13.274 9.164-3.767-.369-9.741-1.597-12.184-4.784z"/><path d="m99.225 100.607a1.754 1.754 0 0 0 -2.318.868c-4.321 9.492-9.529 18.275-18.307 18.275-4.745 0-6.613-1.353-8.42-2.662a9.337 9.337 0 0 0 -12.36 0c-1.807 1.309-3.675 2.662-8.42 2.662-8.778 0-13.986-8.783-18.312-18.285-17.517-37.837-7.695-58.876-.055-64.715a13.932 13.932 0 0 1 7.662-2.9 1.75 1.75 0 1 0 -.257-3.49 17.323 17.323 0 0 0 -9.53 3.605c-11.714 8.952-17.021 34.351-1 68.956 4.574 10.055 10.706 20.329 21.492 20.329 5.88 0 8.427-1.845 10.473-3.327 1.391-1.007 2.309-1.673 4.127-1.673s2.737.666 4.127 1.673c2.047 1.482 4.594 3.327 10.473 3.327 10.786 0 16.918-10.274 21.493-20.325a1.751 1.751 0 0 0 -.868-2.318z"/><path d="m103.2 90.69a1.753 1.753 0 0 0 -2.246 1.04q-.579 1.581-1.227 3.2a1.75 1.75 0 0 0 .977 2.274 1.721 1.721 0 0 0 .648.126 1.749 1.749 0 0 0 1.625-1.1q.666-1.666 1.263-3.293a1.75 1.75 0 0 0 -1.04-2.247z"/><path d="m26.046 55.745a1.744 1.744 0 0 0 -1.929 1.55 54.524 54.524 0 0 0 -.213 8.714 1.751 1.751 0 0 0 1.746 1.659h.093a1.75 1.75 0 0 0 1.657-1.841 51.145 51.145 0 0 1 .2-8.153 1.749 1.749 0 0 0 -1.554-1.929z"/></g></g></svg>