<svg id="Layer_1" enable-background="new 0 0 512 512" height="512" viewBox="0 0 512 512" width="512" xmlns="http://www.w3.org/2000/svg"><path d="m374.71 132c-7.186 0-14.232 1.967-20.36 5.717-26.722 16.354-66.597 35.677-98.35 35.677s-71.628-19.322-98.35-35.677c-6.128-3.75-13.174-5.717-20.36-5.717h-37.004c27.383 46.675 86.806 83.025 155.714 83.025s128.331-36.35 155.714-83.025z" fill="#ffb750"/><path d="m256 193.447c-57.84 0-108.987-25.616-140.123-61.447h-15.591c27.383 46.674 86.806 83.025 155.714 83.025s128.331-36.35 155.714-83.025h-15.591c-31.136 35.831-82.283 61.447-140.123 61.447z" fill="#ea8e50"/><path d="m411.714 132c-27.383 46.675-86.806 83.025-155.714 83.025s-128.331-36.35-155.714-83.025h-82.696c-5.451 0-9.798 4.539-9.582 9.982 5.242 132.339 114.266 238.018 247.992 238.018s242.75-105.679 247.992-238.018c.216-5.443-4.131-9.982-9.582-9.982z" fill="#a8ffa9"/><path d="m411.714 132c-27.383 46.675-86.806 83.025-155.714 83.025s-128.331-36.35-155.714-83.025h-47.042c0 111.894 90.777 202.601 202.756 202.601s202.756-90.707 202.756-202.601z" fill="#ffe070"/><path d="m456.627 132c.52 0-8.018 34.132-9.095 37.226-4.515 12.966-11.125 25.041-17.414 37.246-10.872 21.098-36.331 44.861-40.622 48.616-2.676 1.34-5.421 2.303-8.23 2.768-8.759 1.448-17.907.802-26.335 3.591-15.379 5.089-24.974 20.273-38.736 28.814-7.947 4.932-32.741 14.541-60.194 14.961-101.981 1.562-186.384-75.253-200.628-173.222h-2.13c0 111.894 90.777 202.601 202.756 202.601s202.757-90.707 202.757-202.601z" fill="#ffce66"/><path d="m314.446 276.647c.832-1.77 1.277-3.724.882-5.603-.835-3.974-5.587-6.849-10.251-6.686-4.663.163-8.892 2.988-10.886 6.64-8.509 15.586 13.992 18.975 20.255 5.649z" fill="#ffce66"/><g fill="#231f20"><path d="m494.41 124c-13.975 0-107.458 0-119.7 0-8.684 0-17.167 2.384-24.535 6.893-16.95 10.374-60.056 34.5-94.175 34.5s-77.225-24.127-94.175-34.5c-7.368-4.509-15.853-6.893-24.535-6.893h-119.7c-10.166 0-17.965 8.492-17.576 18.298 5.38 135.834 117.168 245.702 255.986 245.702 139.058 0 250.613-110.103 255.986-245.701.388-9.802-7.403-18.299-17.576-18.299zm-238.41 248c-130.354 0-234.963-103.202-239.999-230.335-.036-.911.683-1.665 1.589-1.665h27.82c4.226 112.432 97.06 202.602 210.59 202.602 39.713 0 78.4-11.098 111.881-32.093 3.743-2.348 4.875-7.285 2.527-11.028-2.345-3.743-7.284-4.876-11.027-2.527-30.93 19.396-66.679 29.648-103.381 29.648-104.706 0-190.363-82.994-194.579-186.602h34.381c14.221 22.568 35.099 42.128 60.662 56.756 3.835 2.196 8.722.865 10.917-2.97 2.195-3.834.865-8.722-2.97-10.917-19.977-11.432-36.771-26.087-49.238-42.87 17.663.829 26.967-2.397 38.3 4.541 28.31 17.325 69.176 36.853 102.527 36.853 33.345 0 74.21-19.523 102.526-36.854 4.854-2.97 10.449-4.54 16.184-4.54h22.085c-36.039 48.223-104.509 76.615-173.999 64.054-4.344-.784-8.51 2.102-9.295 6.45s2.102 8.509 6.45 9.295c80.754 14.595 159.751-21.865 196.246-79.799h34.386c-1.996 49.859-22.611 96.226-58.585 131.297-3.163 3.084-3.228 8.149-.144 11.313 3.075 3.154 8.139 3.238 11.313.144 39.089-38.108 61.421-88.542 63.425-142.753h27.817c.905 0 1.624.752 1.588 1.665-5.038 127.196-109.705 230.335-239.997 230.335z"/><path d="m190.78 195.35c-3.68-.75-7.5 1.242-8.95 4.79-1.93 4.64.901 9.935 5.82 10.9 4.488.86 8.583-2.064 9.41-6.28.852-4.032-1.612-8.401-6.28-9.41z"/></g></svg>