<?xml version="1.0" encoding="iso-8859-1"?>
<!-- Generator: Adobe Illustrator 19.0.0, SVG Export Plug-In . SVG Version: 6.00 Build 0)  -->
<svg version="1.1" id="Capa_1" xmlns="http://www.w3.org/2000/svg" xmlns:xlink="http://www.w3.org/1999/xlink" x="0px" y="0px"
	 viewBox="0 0 512 512" style="enable-background:new 0 0 512 512;" xml:space="preserve">
<path style="fill:#5EAC24;" d="M400.93,35.187l-0.01,0.03c-4.964,10.848-19.135,37.429-45.174,54.782
	c-20.726,13.821-48.977,21.797-86.116,11.369c-3.363-0.941-6.805-2.032-10.318-3.293c-0.01-0.01-0.02-0.01-0.03-0.01
	c-1.331-0.48-1.982-1.972-1.441-3.272c0-0.01,0-0.01,0.01-0.02c0.781-1.891,1.581-3.743,2.412-5.534
	c17.193-37.549,43.073-54.191,68.192-60.556c30.363-7.696,59.605-0.36,70.994,3.232l0.03,0.01
	C400.85,32.355,401.531,33.886,400.93,35.187z"/>
<path style="fill:#6DC82A;" d="M400.93,35.187l-0.01,0.03c-4.964,10.848-19.135,37.429-45.174,54.782
	c-15.862,3.933-34.476,4.103-56.093-1.972c-3.363-0.941-6.805-2.032-10.318-3.293c-0.01-0.01-0.02-0.01-0.03-0.01
	c-1.331-0.48-1.982-1.971-1.441-3.272c0-0.01,0-0.01,0.01-0.02c0.781-1.891,1.581-3.743,2.412-5.534
	c10.288-22.467,23.688-37.449,38.169-47.216c30.363-7.696,59.605-0.36,70.994,3.232l0.03,0.01
	C400.85,32.355,401.531,33.886,400.93,35.187z"/>
<path style="fill:#47821C;" d="M298.022,87.557l-28.392,13.811c-3.363-0.941-6.805-2.032-10.318-3.293
	c-0.01-0.01-0.02-0.01-0.03-0.01c-1.331-0.48-1.982-1.972-1.441-3.272c0-0.01,0-0.01,0.01-0.02c0.781-1.891,1.581-3.743,2.412-5.534
	l30.793-14.981c-0.26,0.54-0.52,1.091-0.771,1.641c-0.831,1.791-1.631,3.643-2.412,5.534c-0.01,0.01-0.01,0.01-0.01,0.02
	c-0.54,1.301,0.11,2.792,1.441,3.272c0.01,0,0.02,0,0.03,0.01C292.278,85.795,295.18,86.726,298.022,87.557z"/>
<path style="fill:#9CDD05;" d="M419.565,378.038c0,69.553-56.913,126.456-126.466,126.456h-74.197
	c-34.776,0-66.391-14.231-89.318-37.148c-22.917-22.917-37.148-54.532-37.148-89.308c0-32.785,15.302-62.157,39.11-81.342
	c13.911-11.209,24.959-25.219,32.525-40.901c7.566-15.682,11.659-33.015,11.659-50.879c0-22.077,9.027-42.142,23.578-56.693
	c14.551-14.551,34.616-23.578,56.693-23.578c5.925,0,11.699,0.65,17.263,1.891c15.182,3.353,28.782,11.038,39.43,21.687
	c14.551,14.551,23.578,34.616,23.578,56.693c0,35.717,16.362,69.373,44.184,91.78c11.909,9.587,21.677,21.737,28.482,35.567
	C415.742,346.104,419.565,361.645,419.565,378.038z"/>
<path style="fill:#91CC04;" d="M402.872,321.585c19.757,71.95-38.334,153.887-122.784,153.887h-39.67
	c-33.751,0-65.775-13.493-89.532-37.362c-39.018-39.204-27.938-106.664,15.186-141.414c27.925-22.501,44.184-56.191,44.184-91.78
	c0-38.251,27.101-70.451,63.008-78.38c-49.8-11.106-97.534,27.262-97.534,78.38c0,35.579-16.251,69.273-44.184,91.78
	c-2.265,1.824-4.451,3.743-6.556,5.746c0-0.001,0.001-0.001,0.001-0.002c-73.889,70.304-14.371,202.054,93.912,202.054
	c14.719,0,59.67,0,74.197,0C392.37,504.494,450.154,394.31,402.872,321.585z"/>
<path d="M157.875,480.026c-35.737-21.526-57.934-60.606-57.934-101.988c0-29.382,13.24-56.903,36.318-75.497
	c29.593-23.838,46.706-59.105,46.976-96.754c0.02-4.143-3.313-7.526-7.456-7.556h-0.05c-4.123,0-7.476,3.323-7.506,7.446
	c-0.23,33.125-15.322,64.169-41.382,85.175c-26.64,21.456-41.912,53.231-41.912,87.186c0,23.448,6.225,46.576,17.994,66.861
	c11.409,19.665,27.731,36.258,47.206,47.987c1.211,0.731,2.552,1.081,3.863,1.081c2.552,0,5.034-1.301,6.445-3.633
	C162.569,486.781,161.428,482.167,157.875,480.026z"/>
<path d="M425.549,359.614c-0.691-4.083-4.553-6.855-8.647-6.165c-4.083,0.691-6.845,4.553-6.165,8.647
	c0.881,5.234,1.321,10.588,1.321,15.942c0,65.59-53.361,118.951-118.961,118.951h-74.197c-12.039,0-23.938-1.811-35.347-5.394
	c-3.963-1.241-8.166,0.961-9.407,4.914c-1.241,3.963,0.961,8.176,4.914,9.417c12.87,4.033,26.27,6.075,39.84,6.075h74.197
	c73.876,0,133.972-60.096,133.972-133.962C427.07,371.863,426.56,365.659,425.549,359.614z"/>
<path d="M178.321,183.37c3.873,1.491,8.206-0.45,9.687-4.313c9.858-25.69,33.596-43.663,60.486-46.505
	c2.472-0.27,4.984-0.4,7.506-0.4c2.532,0,5.044,0.13,7.506,0.39c36.608,3.763,65.26,34.786,65.26,72.375
	c0,37.989,17.123,73.576,46.976,97.624c11.098,8.947,20.265,20.406,26.51,33.135c1.301,2.662,3.973,4.203,6.745,4.203
	c1.111,0,2.232-0.25,3.293-0.771c3.723-1.821,5.264-6.315,3.443-10.038c-7.206-14.691-17.774-27.911-30.573-38.219
	c-26.3-21.186-41.382-52.51-41.382-85.935c0-45.865-35.377-83.634-80.271-87.447v-10.098c13.33,4.133,26.28,6.175,38.72,6.175
	c23.098,0,44.424-7.065,63.038-21.106c24.369-18.374,37.799-43.893,42.462-54.061c0.01-0.02,0.02-0.05,0.03-0.06
	c1.181-2.582,1.201-5.544,0.05-8.136c-1.151-2.592-3.363-4.563-6.095-5.424c-10.638-3.353-38.609-10.538-68.622-4.784
	c-29.072,5.564-52.75,21.917-69.583,47.776V7.506C263.506,3.363,260.143,0,256,0c-4.143,0-7.506,3.363-7.506,7.506v109.964
	c-33.075,2.892-62.438,24.749-74.497,56.203C172.516,177.545,174.448,181.889,178.321,183.37z M391.503,37.419
	c-10.558,20.526-37.979,61.167-89.278,61.167c-6.904,0-14.239-0.741-22.014-2.361l51.334-24.974l14.312,8.647
	c1.214,0.734,2.552,1.083,3.874,1.083c2.541,0,5.022-1.292,6.431-3.626c2.145-3.548,1.006-8.162-2.543-10.306l-5.994-3.621
	l10.734-5.222c3.728-1.813,5.279-6.305,3.466-10.033c-1.813-3.727-6.304-5.28-10.033-3.466l-32.151,15.641l1.007-4.93
	c0.829-4.062-1.79-8.027-5.852-8.856c-4.062-0.832-8.027,1.79-8.857,5.851l-3.311,16.21l-31.274,15.215
	C304.91,22.408,365.685,30.553,391.503,37.419z"/>
<g>
	<circle style="fill:#91CC04;" cx="313.048" cy="357.022" r="22.017"/>
	<circle style="fill:#91CC04;" cx="265.012" cy="417.068" r="18.014"/>
	<circle style="fill:#91CC04;" cx="337.067" cy="423.072" r="18.014"/>
</g>
<g>
</g>
<g>
</g>
<g>
</g>
<g>
</g>
<g>
</g>
<g>
</g>
<g>
</g>
<g>
</g>
<g>
</g>
<g>
</g>
<g>
</g>
<g>
</g>
<g>
</g>
<g>
</g>
<g>
</g>
</svg>
